<?xml version="1.0" encoding="UTF-8" standalone="no"?>
<svg
   xmlns:dc="http://purl.org/dc/elements/1.1/"
   xmlns:cc="http://creativecommons.org/ns#"
   xmlns:rdf="http://www.w3.org/1999/02/22-rdf-syntax-ns#"
   xmlns:svg="http://www.w3.org/2000/svg"
   xmlns="http://www.w3.org/2000/svg"
   xmlns:sodipodi="http://sodipodi.sourceforge.net/DTD/sodipodi-0.dtd"
   xmlns:inkscape="http://www.inkscape.org/namespaces/inkscape"
   inkscape:version="1.0 (4035a4fb49, 2020-05-01)"
   sodipodi:docname="project-logo.svg"
   viewBox="0 0 120 120"
   height="120"
   width="120"
   xml:space="preserve"
   id="svg2"
   version="1.1"><metadata
     id="metadata8"><rdf:RDF><cc:Work
         rdf:about=""><dc:format>image/svg+xml</dc:format><dc:type
           rdf:resource="http://purl.org/dc/dcmitype/StillImage" /><dc:title></dc:title></cc:Work></rdf:RDF></metadata><defs
     id="defs6"><clipPath
       clipPathUnits="userSpaceOnUse"
       id="clipPath3444"><path
         d="M 11.52,162 C 11.52,81.677 135.307,16.561 288,16.561 v 0 c 152.693,0 276.481,65.116 276.481,145.439 v 0 c 0,80.322 -123.788,145.439 -276.481,145.439 v 0 C 135.307,307.439 11.52,242.322 11.52,162"
         id="path3446" /></clipPath><radialGradient
       cx="0"
       cy="0"
       fx="0"
       fy="0"
       gradientTransform="matrix(363.05789,0,0,-363.05789,177.52002,256.30713)"
       gradientUnits="userSpaceOnUse"
       id="radialGradient3452"
       r="1"
       spreadMethod="pad"><stop
         id="stop3454"
         offset="0"
         style="stop-opacity:1;stop-color:#aeb2d5" /><stop
         id="stop3456"
         offset="0.3"
         style="stop-opacity:1;stop-color:#aeb2d5" /><stop
         id="stop3458"
         offset="0.75"
         style="stop-opacity:1;stop-color:#484c89" /><stop
         id="stop3460"
         offset="1"
         style="stop-opacity:1;stop-color:#484c89" /></radialGradient><clipPath
       clipPathUnits="userSpaceOnUse"
       id="clipPath3468"><path
         d="M 0,324 H 576 V 0 H 0 Z"
         id="path3470" /></clipPath><clipPath
       clipPathUnits="userSpaceOnUse"
       id="clipPath3480"><path
         d="M 0,324 H 576 V 0 H 0 Z"
         id="path3482" /></clipPath><filter
       id="filter1744"
       style="color-interpolation-filters:sRGB;"
       inkscape:label="Dark and Glow"
       inkscape:menu="Shadows and Glows"
       inkscape:menu-tooltip="Darkens the edge with an inner blur and adds a flexible glow"
       height="1.5"
       y="-0.25"><feGaussianBlur
         id="feGaussianBlur1734"
         result="result6"
         stdDeviation="5" /><feComposite
         id="feComposite1736"
         in2="result6"
         operator="atop"
         in="SourceGraphic"
         result="result8" /><feComposite
         id="feComposite1738"
         in="result8"
         in2="SourceAlpha"
         operator="over"
         result="result9" /><feColorMatrix
         id="feColorMatrix1740"
         result="result10"
         values="1 0 0 0 0 0 1 0 0 0 0 0 1 0 0 0 0 0 1 0 " /><feBlend
         id="feBlend1742"
         in2="result6"
         mode="normal"
         in="result10" /></filter></defs><sodipodi:namedview
     inkscape:document-rotation="0"
     inkscape:current-layer="g10"
     inkscape:window-maximized="1"
     inkscape:window-y="0"
     inkscape:window-x="1920"
     inkscape:cy="71.871404"
     inkscape:cx="46.919205"
     inkscape:zoom="3.779535"
     showgrid="false"
     id="namedview4"
     inkscape:window-height="1171"
     inkscape:window-width="1920"
     inkscape:pageshadow="2"
     inkscape:pageopacity="0"
     guidetolerance="10"
     gridtolerance="10"
     objecttolerance="10"
     borderopacity="1"
     bordercolor="#666666"
     pagecolor="#ffffff" /><g
     transform="matrix(1.3333333,0,0,-1.3333333,0,120)"
     inkscape:label="ink_ext_XXXXXX"
     inkscape:groupmode="layer"
     id="g10"><g
       id="g3438"
       transform="matrix(0.16097701,0,0,0.16097701,-1.2379517,22.696717)"><g
         id="g3440"><g
           clip-path="url(#clipPath3444)"
           id="g3442"><g
             id="g3448"><g
               id="g3450"><path
                 d="M 11.52,162 C 11.52,81.677 135.307,16.561 288,16.561 v 0 c 152.693,0 276.481,65.116 276.481,145.439 v 0 c 0,80.322 -123.788,145.439 -276.481,145.439 v 0 C 135.307,307.439 11.52,242.322 11.52,162"
                 id="path3462"
                 style="fill:url(#radialGradient3452);stroke:none" /></g></g></g></g><g
         id="g3464"><g
           clip-path="url(#clipPath3468)"
           id="g3466"><g
             id="g3472"
             transform="translate(288,27.3594)"><path
               d="M 0,0 C 146.729,0 265.68,60.281 265.68,134.641 265.68,209 146.729,269.282 0,269.282 -146.729,269.282 -265.68,209 -265.68,134.641 -265.68,60.281 -146.729,0 0,0"
               id="path3474"
               style="fill:#777bb3;fill-opacity:1;fill-rule:nonzero;stroke:none" /></g></g></g><g
         id="g3476"><g
           clip-path="url(#clipPath3480)"
           id="g3478"><g
             id="g3484"
             transform="translate(161.7344,145.3066)"><path
               d="m 0,0 c 12.065,0 21.072,2.225 26.771,6.611 5.638,4.341 9.532,11.862 11.573,22.353 1.903,9.806 1.178,16.653 -2.154,20.348 C 32.783,53.086 25.417,55 14.297,55 H -4.984 L -15.673,0 Z m -63.063,-67.75 c -0.895,0 -1.745,0.4 -2.314,1.092 -0.57,0.691 -0.801,1.601 -0.63,2.48 L -37.679,81.573 C -37.405,82.982 -36.17,84 -34.734,84 H 26.32 C 45.508,84 59.79,78.79 68.767,68.513 77.792,58.182 80.579,43.741 77.05,25.592 75.614,18.198 73.144,11.331 69.709,5.183 66.27,-0.972 61.725,-6.667 56.198,-11.747 49.582,-17.939 42.094,-22.429 33.962,-25.071 25.959,-27.678 15.681,-29 3.414,-29 h -24.722 l -7.06,-36.322 c -0.274,-1.41 -1.508,-2.428 -2.944,-2.428 z"
               id="path3486"
               style="fill:#000000;fill-opacity:1;fill-rule:nonzero;stroke:none" /></g><g
             id="g3488"
             transform="translate(159.2236,197.3071)"><path
               d="m 0,0 h 16.808 c 13.421,0 18.083,-2.945 19.667,-4.7 2.628,-2.914 3.124,-9.058 1.435,-17.767 C 36.012,-32.217 32.494,-39.13 27.452,-43.012 22.29,-46.986 13.898,-49 2.511,-49 H -9.523 Z m 28.831,35 h -61.055 c -2.872,0 -5.341,-2.036 -5.889,-4.855 l -28.328,-145.751 c -0.342,-1.759 0.12,-3.578 1.259,-4.961 1.14,-1.383 2.838,-2.183 4.63,-2.183 h 31.75 c 2.873,0 5.342,2.036 5.89,4.855 L -16.324,-84 H 5.925 c 12.582,0 23.174,1.372 31.479,4.077 8.541,2.775 16.399,7.48 23.354,13.984 5.752,5.292 10.49,11.232 14.08,17.657 3.591,6.427 6.171,13.594 7.668,21.302 3.715,19.104 0.697,34.402 -8.969,45.466 C 63.965,29.444 48.923,35 28.831,35 M -16.802,-55 H 2.511 c 12.801,0 22.336,2.411 28.601,7.234 6.266,4.824 10.492,12.875 12.688,24.157 2.101,10.832 1.144,18.476 -2.871,22.929 C 36.909,3.773 28.87,6 16.808,6 H -4.946 L -16.802,-55 M 28.831,29 C 47.198,29 60.597,24.18 69.019,14.539 77.44,4.898 79.976,-8.559 76.616,-25.836 75.233,-32.953 72.894,-39.46 69.601,-45.355 66.304,-51.254 61.999,-56.648 56.679,-61.539 50.339,-67.472 43.296,-71.7 35.546,-74.218 27.796,-76.743 17.925,-78 5.925,-78 h -27.196 l -7.531,-38.75 h -31.75 L -32.224,29 h 61.055"
               id="path3490"
               style="fill:#ffffff;fill-opacity:1;fill-rule:nonzero;stroke:none" /></g><g
             id="g3492"
             transform="translate(311.583,116.3066)"><path
               d="m 0,0 c -0.896,0 -1.745,0.4 -2.314,1.092 -0.571,0.691 -0.802,1.6 -0.631,2.48 L 9.586,68.061 C 10.778,74.194 10.484,78.596 8.759,80.456 7.703,81.593 4.531,83.5 -4.848,83.5 H -27.55 L -43.305,2.428 C -43.579,1.018 -44.814,0 -46.25,0 h -31.5 c -0.896,0 -1.745,0.4 -2.315,1.092 -0.57,0.691 -0.801,1.601 -0.63,2.48 l 28.328,145.751 c 0.274,1.409 1.509,2.427 2.945,2.427 h 31.5 c 0.896,0 1.745,-0.4 2.315,-1.091 0.57,-0.692 0.801,-1.601 0.63,-2.481 L -21.813,113 H 2.609 c 18.605,0 31.221,-3.28 38.569,-10.028 7.49,-6.884 9.827,-17.891 6.947,-32.719 L 34.945,2.428 C 34.671,1.018 33.437,0 32,0 Z"
               id="path3494"
               style="fill:#000000;fill-opacity:1;fill-rule:nonzero;stroke:none" /></g><g
             id="g3496"
             transform="translate(293.6611,271.0571)"><path
               d="m 0,0 h -31.5 c -2.873,0 -5.342,-2.036 -5.89,-4.855 l -28.328,-145.751 c -0.342,-1.759 0.12,-3.578 1.26,-4.961 1.14,-1.383 2.838,-2.183 4.63,-2.183 h 31.5 c 2.872,0 5.342,2.036 5.89,4.855 l 15.283,78.645 h 20.229 c 9.363,0 11.328,-2 11.407,-2.086 0.568,-0.611 1.315,-3.441 0.082,-9.781 l -12.531,-64.489 c -0.342,-1.759 0.12,-3.578 1.26,-4.961 1.14,-1.383 2.838,-2.183 4.63,-2.183 h 32 c 2.872,0 5.342,2.036 5.89,4.855 l 13.179,67.825 c 3.093,15.921 0.447,27.864 -7.861,35.5 -7.928,7.281 -21.208,10.82 -40.599,10.82 H -0.253 L 5.89,-7.145 C 6.231,-5.386 5.77,-3.566 4.63,-2.184 3.49,-0.801 1.792,0 0,0 m 0,-6 -7.531,-38.75 h 28.062 c 17.657,0 29.836,-3.082 36.539,-9.238 6.703,-6.16 8.711,-16.141 6.032,-29.938 l -13.18,-67.824 h -32 l 12.531,64.488 c 1.426,7.336 0.902,12.34 -1.574,15.008 -2.477,2.668 -7.746,4.004 -15.805,4.004 h -25.176 l -16.226,-83.5 h -31.5 L -31.5,-6 H 0"
               id="path3498"
               style="fill:#ffffff;fill-opacity:1;fill-rule:nonzero;stroke:none" /></g><g
             id="g3500"
             transform="translate(409.5498,145.3066)"><path
               d="m 0,0 c 12.065,0 21.072,2.225 26.771,6.611 5.638,4.34 9.532,11.861 11.574,22.353 1.903,9.806 1.178,16.653 -2.155,20.348 C 32.783,53.086 25.417,55 14.297,55 H -4.984 L -15.673,0 Z m -63.062,-67.75 c -0.895,0 -1.745,0.4 -2.314,1.092 -0.57,0.691 -0.802,1.601 -0.631,2.48 L -37.679,81.573 C -37.404,82.982 -36.17,84 -34.733,84 H 26.32 C 45.509,84 59.79,78.79 68.768,68.513 77.793,58.183 80.579,43.742 77.051,25.592 75.613,18.198 73.144,11.331 69.709,5.183 66.27,-0.972 61.725,-6.667 56.198,-11.747 49.582,-17.939 42.094,-22.429 33.962,-25.071 25.959,-27.678 15.681,-29 3.414,-29 h -24.723 l -7.057,-36.322 c -0.275,-1.41 -1.509,-2.428 -2.946,-2.428 z"
               id="path3502"
               style="fill:#000000;fill-opacity:1;fill-rule:nonzero;stroke:none" /></g><g
             id="g3504"
             transform="translate(407.0391,197.3071)"><path
               d="M 0,0 H 16.808 C 30.229,0 34.891,-2.945 36.475,-4.7 39.104,-7.614 39.6,-13.758 37.91,-22.466 36.012,-32.217 32.493,-39.13 27.452,-43.012 22.29,-46.986 13.898,-49 2.511,-49 H -9.522 Z m 28.831,35 h -61.054 c -2.872,0 -5.341,-2.036 -5.889,-4.855 L -66.44,-115.606 c -0.342,-1.759 0.12,-3.578 1.259,-4.961 1.14,-1.383 2.838,-2.183 4.63,-2.183 h 31.75 c 2.872,0 5.342,2.036 5.89,4.855 L -16.324,-84 H 5.925 c 12.582,0 23.174,1.372 31.479,4.077 8.541,2.775 16.401,7.481 23.356,13.986 5.752,5.291 10.488,11.23 14.078,17.655 3.591,6.427 6.171,13.594 7.668,21.302 3.715,19.105 0.697,34.403 -8.969,45.467 C 63.965,29.444 48.924,35 28.831,35 M -16.801,-55 H 2.511 c 12.801,0 22.336,2.411 28.601,7.234 6.267,4.824 10.492,12.875 12.688,24.157 2.102,10.832 1.145,18.476 -2.871,22.929 C 36.909,3.773 28.87,6 16.808,6 H -4.946 L -16.801,-55 M 28.831,29 C 47.198,29 60.597,24.18 69.019,14.539 77.441,4.898 79.976,-8.559 76.616,-25.836 75.233,-32.953 72.894,-39.46 69.601,-45.355 66.304,-51.254 61.999,-56.648 56.679,-61.539 50.339,-67.472 43.296,-71.7 35.546,-74.218 27.796,-76.743 17.925,-78 5.925,-78 h -27.196 l -7.53,-38.75 h -31.75 L -32.223,29 h 61.054"
               id="path3506"
               style="fill:#ffffff;fill-opacity:1;fill-rule:nonzero;stroke:none" /></g></g></g></g><path
       transform="matrix(1.8736786,0,0,1.4808684,-42.527029,-26.571477)"
       d="m 43.442128,29.757731 0.985298,1.579688 0.281404,-0.04124 c 0.67603,-0.09909 1.448315,-0.154294 2.166025,-0.154836 0.699757,0 0.979878,0.01877 2.19353,0.150996 l 0.370731,0.0404 0.908549,-1.47189 c 0.499694,-0.809551 0.946175,-1.523271 0.992187,-1.586036 0.08053,-0.109903 0.110793,-0.106807 0.820767,0.08395 1.002914,0.269462 2.181944,0.684696 3.161793,1.113537 1.076366,0.471098 2.675196,1.347671 2.674284,1.466249 0,0.02507 -0.190393,0.844671 -0.422691,1.821374 l -0.422346,1.77584 0.623501,0.507868 c 0.77769,0.633446 1.839206,1.695745 2.443074,2.444686 0.253095,0.313943 0.499762,0.570812 0.548134,0.570812 0.0484,0 0.864004,-0.180737 1.812508,-0.40163 0.948478,-0.220905 1.735751,-0.401642 1.749343,-0.401642 0.0661,0 0.708144,1.152627 1.142963,2.05188 0.586561,1.213175 1.018432,2.357844 1.357641,3.599129 0.194653,0.712086 0.234734,0.934865 0.174714,0.971256 -0.04288,0.02598 -0.759114,0.472989 -1.591773,0.993369 -1.207942,0.754976 -1.510984,0.970741 -1.499697,1.0678 0.1894,1.631974 0.181095,3.747727 -0.01856,4.732715 -0.03118,0.153777 0.0461,0.211343 1.492943,1.112228 0.839209,0.522527 1.5552,0.96901 1.591172,0.992192 0.136675,0.08815 -0.440692,2.058731 -1.006441,3.435113 -0.407483,0.991315 -1.308585,2.757502 -1.637821,3.210051 -0.0059,0.0077 -0.828773,-0.180878 -1.829334,-0.419 l -1.819161,-0.432943 -0.185376,0.23262 c -0.90224,1.132278 -1.830233,2.068706 -2.919595,2.946299 -0.246381,0.198487 -0.447974,0.370924 -0.447974,0.383194 0,0.01228 0.180738,0.80023 0.401634,1.750956 0.220896,0.950762 0.401634,1.769188 0.401634,1.818756 0,0.173998 -1.821674,1.158973 -3.164103,1.710754 -1.366912,0.561878 -3.346866,1.14326 -3.436224,1.008965 -0.02319,-0.03484 -0.469765,-0.751006 -0.992422,-1.591473 -0.617794,-0.993442 -0.97847,-1.517325 -1.030828,-1.497278 -0.04429,0.01699 -0.59886,0.06562 -1.23242,0.108039 -0.924921,0.06194 -1.373157,0.06172 -2.274929,-0.0011 -0.617702,-0.04305 -1.193731,-0.09238 -1.28007,-0.109618 -0.146958,-0.02935 -0.217612,0.06664 -1.106488,1.503118 -0.522243,0.843946 -0.969299,1.557222 -0.99347,1.585029 -0.099,0.113961 -2.095705,-0.472273 -3.358044,-0.985925 -1.343439,-0.546645 -3.249745,-1.576664 -3.251155,-1.756697 -0.0011,-0.05326 0.179984,-0.85563 0.400888,-1.783092 0.220893,-0.927421 0.40163,-1.720428 0.40163,-1.762339 0,-0.04186 -0.229386,-0.253273 -0.509771,-0.469795 -0.655791,-0.506447 -2.070316,-1.921012 -2.576763,-2.576763 -0.216533,-0.280376 -0.437849,-0.509339 -0.49182,-0.508816 -0.05397,5.55e-4 -0.876695,0.17968 -1.828227,0.398126 l -1.730098,0.39717 -0.104958,-0.135511 c -0.186484,-0.24082 -0.90084,-1.538531 -1.214109,-2.205565 -0.426565,-0.90828 -0.883577,-2.16532 -1.179122,-3.243195 -0.138334,-0.504533 -0.251512,-0.935864 -0.251512,-0.958531 0,-0.02267 0.71094,-0.483781 1.57989,-1.024682 l 1.579886,-0.983487 -0.03708,-0.370742 c -0.165505,-1.654642 -0.159248,-3.033544 0.01954,-4.306965 l 0.04947,-0.352418 -1.271409,-0.787536 c -0.699271,-0.433154 -1.415469,-0.878963 -1.591575,-0.990697 l -0.320137,-0.203152 0.208139,-0.788656 c 0.280265,-1.061958 0.714094,-2.292058 1.141447,-3.236546 0.361402,-0.79883 1.108902,-2.165824 1.329838,-2.43179 l 0.123585,-0.148822 1.791956,0.426314 1.79196,0.426314 0.154483,-0.196413 c 0.838966,-1.066692 1.924234,-2.171062 2.888872,-2.939446 0.332812,-0.265132 0.500644,-0.439442 0.483163,-0.501803 -0.08342,-0.297634 -0.776837,-3.410633 -0.776837,-3.487401 0,-0.183186 2.038383,-1.273424 3.336688,-1.784706 1.0071,-0.396573 2.81956,-0.956093 3.120387,-0.963286 0.09577,-0.0023 0.345303,0.352516 1.108903,1.576767 z m 1.673681,4.690502 c -4.709946,0.640963 -8.692309,3.483272 -10.729381,7.658158 -1.044929,2.14114 -1.441666,3.851495 -1.440557,6.209945 0.0011,2.365198 0.377485,3.998885 1.421619,6.170954 0.671629,1.397138 1.404388,2.433204 2.5549,3.61273 2.247429,2.303945 5.264753,3.774526 8.456868,4.121592 0.88637,0.09639 2.975214,0.04511 3.781177,-0.09281 3.888467,-0.665443 7.345746,-2.92222 9.469562,-6.181434 0.773567,-1.187084 1.566792,-3.055103 1.889071,-4.448915 0.732026,-3.165722 0.331892,-6.554393 -1.116052,-9.451528 -2.106586,-4.214882 -6.191305,-7.053684 -10.981247,-7.632062 -0.71908,-0.08682 -2.558831,-0.06827 -3.305353,0.03333 z m 8.094991,4.78762 c 0.113037,0.124903 0.102884,0.137749 -0.917276,1.159278 -0.87183,0.872957 -1.031637,1.061452 -1.031637,1.216802 0,0.153818 0.138868,0.323039 0.848799,1.034353 1.139227,1.141345 0.97829,1.153331 2.305253,-0.171853 1.020244,-1.018937 1.023979,-1.021858 1.139226,-0.894538 0.113467,0.125388 0.110145,0.148407 -0.181496,1.253977 l -0.297073,1.126234 -0.589633,0.598951 -0.589642,0.598951 -1.116862,0.260821 -1.116861,0.260818 -3.524884,3.513998 -3.524879,3.513999 -0.20316,0.8475 c -0.372617,1.554401 -0.30256,1.409428 -0.985693,2.039792 l -0.609593,0.562491 -1.106182,0.309026 c -1.096312,0.306297 -1.107193,0.307969 -1.227683,0.188828 -0.120663,-0.119334 -0.114054,-0.127746 0.911393,-1.15968 0.863074,-0.868485 1.032942,-1.069111 1.032942,-1.219926 0,-0.149728 -0.149888,-0.330635 -0.879721,-1.061756 -0.663477,-0.664666 -0.917708,-0.881279 -1.03435,-0.881279 -0.117509,0 -0.401681,0.246746 -1.184364,1.028408 -1.030827,1.029518 -1.165121,1.119986 -1.267072,0.854241 -0.02056,-0.05359 0.09486,-0.607475 0.256498,-1.230807 l 0.293911,-1.133386 0.594501,-0.587406 0.594519,-0.587405 1.123712,-0.263873 1.123714,-0.263871 3.514805,-3.526794 3.514805,-3.526793 0.261725,-1.124014 0.261725,-1.124018 0.618633,-0.570358 0.618601,-0.570361 1.06176,-0.294155 c 0.583975,-0.161787 1.092178,-0.29605 1.129452,-0.298368 0.03719,-0.0023 0.119092,0.05262 0.181968,0.122093 z M 41.684526,39.98162 c 0.361634,0.167329 0.626262,0.409955 2.656756,2.43572 l 2.255083,2.249847 -0.367509,0.371388 -0.367521,0.371387 -0.937937,-0.92578 c -0.85392,-0.842826 -0.957596,-0.925778 -1.157061,-0.925778 -0.163137,0 -0.251863,0.0416 -0.347201,0.162803 -0.268665,0.341549 -0.203262,0.457456 0.867742,1.537678 l 0.858913,0.866349 -0.386691,0.380798 -0.386699,0.380797 -0.970895,-0.922747 c -1.046844,-0.99492 -1.163205,-1.058229 -1.450431,-0.788392 -0.0967,0.09084 -0.143019,0.204442 -0.143019,0.350795 0,0.196272 0.08635,0.303445 0.926586,1.150009 l 0.926566,0.933555 -0.371267,0.367399 -0.371275,0.367397 -2.22607,-2.223348 c -2.431591,-2.428569 -2.528004,-2.55057 -2.66653,-3.372754 -0.09684,-0.575066 0.0078,-1.004804 0.357647,-1.470277 0.298799,-0.397492 0.901873,-0.980745 1.255186,-1.213983 0.56791,-0.374832 1.346463,-0.406417 2.045536,-0.08298 z m 7.167628,10.620577 -2.131772,2.092078 -0.294521,-0.287456 -0.294495,-0.287457 2.116758,-2.117467 2.116761,-2.117465 0.309486,0.312814 0.309486,0.312814 z m 2.580791,1.59238 1.545136,1.591677 0.733071,0.239622 0.73308,0.239624 0.645351,0.938886 c 0.35494,0.51639 0.654821,0.967347 0.666416,1.002135 0.01163,0.03478 -0.284794,0.34752 -0.658658,0.694971 l -0.67974,0.631724 -0.95412,-0.68386 -0.95412,-0.683859 -0.237468,-0.680183 -0.237476,-0.680182 -1.621497,-1.621395 -1.621494,-1.621396 0.476957,-0.47977 c 0.262331,-0.263872 0.509047,-0.47978 0.548264,-0.47978 0.03922,0 0.766605,0.716261 1.616356,1.591676 z"
       inkscape:connector-curvature="0"
       style="fill:#e12d0e;stroke-width:0.100745;filter:url(#filter1744)"
       sodipodi:nodetypes="ccscscscsscscssssssscscsscscscsssssscscsssscscsssscscsssssccscsscssscccsscsscccsssssssssssscsssscscccccccsscssssssscscccccccccccsscsscccsscscccsssscccssssscccccccccscccscscccccccsss"
       id="path3919" /></g></svg>
